<?xml version="1.0" encoding="UTF-8"?>
<!DOCTYPE svg PUBLIC "-//W3C//DTD SVG 1.1//EN" "http://www.w3.org/Graphics/SVG/1.1/DTD/svg11.dtd">
<svg xmlns="http://www.w3.org/2000/svg" version="1.1" width="800px" height="800px" style="shape-rendering:geometricPrecision; text-rendering:geometricPrecision; image-rendering:optimizeQuality; fill-rule:evenodd; clip-rule:evenodd" xmlns:xlink="http://www.w3.org/1999/xlink">
<g><path style="opacity:0.986" fill="#01fd20" d="M 499.5,-0.5 C 505.5,-0.5 511.5,-0.5 517.5,-0.5C 521.56,1.29652 525.06,3.96319 528,7.5C 560.6,65.0914 593.6,122.425 627,179.5C 637.582,173.459 648.082,167.293 658.5,161C 668.072,155.148 678.072,154.148 688.5,158C 693.626,161.475 696.792,166.309 698,172.5C 698.667,177.167 698.667,181.833 698,186.5C 682.277,250.001 665.943,313.334 649,376.5C 643.699,386.452 635.366,391.452 624,391.5C 559.389,375.889 494.889,359.722 430.5,343C 412.978,337.125 407.478,325.625 414,308.5C 416.869,305.296 420.035,302.463 423.5,300C 436.662,292.92 449.662,285.587 462.5,278C 450.545,256.587 438.212,235.421 425.5,214.5C 414.171,230.673 403.004,247.006 392,263.5C 383.049,272.805 372.549,274.972 360.5,270C 326.246,245.956 292.079,221.79 258,197.5C 248.081,184.512 248.081,171.512 258,158.5C 289.104,119.786 319.604,80.6192 349.5,41C 356.091,36.132 363.424,32.7986 371.5,31C 412.838,21.332 454.172,11.6654 495.5,2C 497.066,1.3918 498.4,0.558465 499.5,-0.5 Z"/></g>
<g><path style="opacity:1" fill="#62af21" d="M 501.5,33.5 C 502.873,33.3433 504.207,33.51 505.5,34C 541.333,96.5 577.167,159 613,221.5C 613.837,223.007 615.004,223.507 616.5,223C 631.416,214.293 646.249,205.459 661,196.5C 648.382,250.701 634.716,304.701 620,358.5C 566.883,344.595 513.716,330.762 460.5,317C 476.035,308.07 491.368,298.904 506.5,289.5C 463.247,214.663 420.247,139.663 377.5,64.5C 378.381,63.0295 379.714,62.1962 381.5,62C 421.699,52.7821 461.699,43.2821 501.5,33.5 Z"/></g>
<g><path style="opacity:1" fill="#628f21" d="M 351.5,88.5 C 352.675,88.281 353.675,88.6143 354.5,89.5C 371.2,118.371 387.7,147.371 404,176.5C 404.667,180.833 404.667,185.167 404,189.5C 393.275,204.56 382.942,219.894 373,235.5C 372.196,236.804 371.029,237.471 369.5,237.5C 340.477,218.312 312.144,198.146 284.5,177C 306.651,147.35 328.985,117.85 351.5,88.5 Z"/></g>
<g><path style="opacity:0.985" fill="#01fd20" d="M 239.5,264.5 C 253.858,263.259 264.358,268.925 271,281.5C 293.867,342.434 316.533,403.434 339,464.5C 342.788,487.51 333.288,497.343 310.5,494C 295.803,487.568 281.303,480.735 267,473.5C 256.295,496.409 245.462,519.243 234.5,542C 255.833,542.333 277.167,542.667 298.5,543C 306.927,545.095 312.427,550.261 315,558.5C 316.102,568.786 316.602,579.119 316.5,589.5C 315.901,622.832 315.401,656.165 315,689.5C 311.257,703.729 301.924,711.062 287,711.5C 242.527,707.887 198.027,704.553 153.5,701.5C 143.157,703.331 133.49,701.498 124.5,696C 91.9039,668.074 59.9039,639.408 28.5,610C 24.3409,606.753 20.0076,603.753 15.5,601C 7.58367,592.908 5.41701,583.408 9,572.5C 36.705,513.591 64.5383,454.757 92.5,396C 78.9869,389.077 65.3202,382.41 51.5,376C 36.3677,363.741 35.701,350.741 49.5,337C 53.2211,334.473 57.2211,332.473 61.5,331C 120.904,308.703 180.238,286.536 239.5,264.5 Z"/></g>
<g><path style="opacity:1" fill="#62af21" d="M 239.5,298.5 C 240.822,298.33 241.989,298.663 243,299.5C 262.233,350.879 281.233,402.212 300,453.5C 284.122,445.561 268.122,437.894 252,430.5C 215.016,508.469 178.016,586.469 141,664.5C 140.439,665.022 139.772,665.355 139,665.5C 127.885,656.722 117.051,647.556 106.5,638C 86.0977,618.261 65.0977,599.261 43.5,581C 42.9415,580.275 42.6082,579.442 42.5,578.5C 73.3689,512.596 104.369,446.763 135.5,381C 119.656,372.578 103.656,364.411 87.5,356.5C 138.178,336.945 188.845,317.611 239.5,298.5 Z"/></g>
<g><path style="opacity:0.988" fill="#01fd20" d="M 519.5,799.5 C 513.833,799.5 508.167,799.5 502.5,799.5C 496.19,796.331 490.524,792.165 485.5,787C 450.605,752.603 415.605,718.437 380.5,684.5C 371.812,674.146 362.478,664.479 352.5,655.5C 350.254,653.351 348.754,650.684 348,647.5C 346.237,638.427 347.904,630.094 353,622.5C 363.006,611.328 373.506,600.661 384.5,590.5C 390.636,585.896 396.636,580.396 402.5,574C 402.272,573.601 401.938,573.435 401.5,573.5C 406.775,566.556 412.775,560.223 419.5,554.5C 425.636,549.896 431.636,544.396 437.5,538C 437.272,537.601 436.938,537.435 436.5,537.5C 441.797,530.536 447.797,524.202 454.5,518.5C 460.636,513.896 466.636,508.396 472.5,502C 472.272,501.601 471.938,501.435 471.5,501.5C 479.089,491.077 488.423,482.577 499.5,476C 515.26,471.29 525.093,476.79 529,492.5C 529.5,509.163 529.667,525.83 529.5,542.5C 554.842,542.833 580.175,542.5 605.5,541.5C 596.667,523.167 587.833,504.833 579,486.5C 575.982,473.871 579.816,464.038 590.5,457C 628.487,438.839 666.821,421.505 705.5,405C 720.954,403.478 731.454,409.978 737,424.5C 753.521,468.534 770.854,512.2 789,555.5C 792.442,567.563 792.109,579.563 788,591.5C 774.429,635.869 761.096,680.202 748,724.5C 744.361,728.734 739.861,731.568 734.5,733C 667.501,733.5 600.501,733.667 533.5,733.5C 533.927,750.548 533.427,767.548 532,784.5C 530.151,791.586 525.985,796.586 519.5,799.5 Z"/></g>
<g><path style="opacity:1" fill="#628f21" d="M 704.5,438.5 C 705.833,438.5 707.167,438.5 708.5,438.5C 721.833,472.833 735.167,507.167 748.5,541.5C 714.498,541.667 680.498,541.5 646.5,541C 643.671,539.753 641.005,538.253 638.5,536.5C 630.272,519.044 621.772,501.71 613,484.5C 612.316,483.216 612.483,482.049 613.5,481C 644.165,467.332 674.498,453.165 704.5,438.5 Z"/></g>
<g><path style="opacity:0.655" fill="#00ea1e" d="M 471.5,501.5 C 471.938,501.435 472.272,501.601 472.5,502C 466.636,508.396 460.636,513.896 454.5,518.5C 459.833,512.5 465.5,506.833 471.5,501.5 Z"/></g>
<g><path style="opacity:1" fill="#62af21" d="M 496.5,520.5 C 497.173,538.569 497.839,556.736 498.5,575C 584.836,575.483 671.169,575.483 757.5,575C 757.957,575.414 758.291,575.914 758.5,576.5C 757.512,579.45 756.679,582.45 756,585.5C 743.987,624.036 732.487,662.703 721.5,701.5C 648.499,701.333 575.499,701.5 502.5,702C 501.674,720.093 501.174,738.26 501,756.5C 461.362,718.53 422.029,680.196 383,641.5C 382.333,640.167 382.333,638.833 383,637.5C 421.4,598.936 459.233,559.936 496.5,520.5 Z"/></g>
<g><path style="opacity:0.655" fill="#00e91e" d="M 436.5,537.5 C 436.938,537.435 437.272,537.601 437.5,538C 431.636,544.396 425.636,549.896 419.5,554.5C 424.833,548.5 430.5,542.833 436.5,537.5 Z"/></g>
<g><path style="opacity:1" fill="#628f21" d="M 277.5,573.5 C 279.833,573.5 282.167,573.5 284.5,573.5C 284.649,608.84 284.315,644.173 283.5,679.5C 246.504,676.958 209.504,674.292 172.5,671.5C 187.311,640.712 201.978,609.879 216.5,579C 218.67,577.414 221.004,576.08 223.5,575C 241.671,574.832 259.671,574.332 277.5,573.5 Z"/></g>
<g><path style="opacity:0.655" fill="#00e91e" d="M 401.5,573.5 C 401.938,573.435 402.272,573.601 402.5,574C 396.636,580.396 390.636,585.896 384.5,590.5C 389.833,584.5 395.5,578.833 401.5,573.5 Z"/></g>
<g><path style="opacity:0.42" fill="#00f01f" d="M 380.5,684.5 C 370.445,675.447 361.112,665.78 352.5,655.5C 362.478,664.479 371.812,674.146 380.5,684.5 Z"/></g>
</svg>
